<svg width="122" height="31" viewBox="0 0 122 31" fill="none" xmlns="http://www.w3.org/2000/svg">
<g clip-path="url(#clip0_14003_8585)">
<path d="M32.1177 11.2617H44.4468V13.5694H39.599V26.5421H36.9332V13.5694H32.1069V11.2617H32.1177ZM43.9201 15.4781H46.1989V17.6133H46.2419C46.3171 17.3113 46.4568 17.0202 46.6611 16.7398C46.8653 16.4594 47.1125 16.1898 47.4028 15.9634C47.693 15.7261 48.0155 15.5428 48.3702 15.3918C48.7249 15.2517 49.0904 15.1762 49.4558 15.1762C49.7353 15.1762 49.9395 15.187 50.047 15.1977C50.1545 15.2085 50.262 15.2301 50.3802 15.2409V17.5917C50.2083 17.5593 50.0363 17.5378 49.8535 17.5162C49.6708 17.4946 49.4988 17.4839 49.3268 17.4839C48.9184 17.4839 48.5314 17.5701 48.1659 17.7319C47.8005 17.8936 47.4888 18.1417 47.22 18.4544C46.9513 18.7779 46.7363 19.1661 46.5751 19.6406C46.4139 20.1151 46.3386 20.6542 46.3386 21.2689V26.5313H43.9093V15.4781H43.9201ZM61.5484 26.5421H59.1622V25H59.1192C58.8182 25.5608 58.3775 26.0029 57.7863 26.3372C57.1951 26.6715 56.5932 26.844 55.9805 26.844C54.5294 26.844 53.4759 26.4882 52.831 25.7657C52.1861 25.0432 51.8636 23.954 51.8636 22.4982V15.4781H54.2929V22.261C54.2929 23.2315 54.4756 23.9217 54.8518 24.3207C55.2173 24.7197 55.744 24.9246 56.4104 24.9246C56.9264 24.9246 57.3456 24.8491 57.6896 24.6873C58.0335 24.5256 58.313 24.3207 58.5172 24.0511C58.7322 23.7923 58.8827 23.4688 58.9794 23.1021C59.0762 22.7355 59.1192 22.3365 59.1192 21.9051V15.4889H61.5484V26.5421ZM65.6868 22.9943C65.7621 23.706 66.0308 24.2021 66.493 24.4932C66.9659 24.7736 67.5249 24.9246 68.1806 24.9246C68.4063 24.9246 68.6643 24.903 68.9545 24.8706C69.2447 24.8383 69.5242 24.7628 69.7714 24.6657C70.0294 24.5687 70.2336 24.4177 70.4056 24.2236C70.5669 24.0295 70.6421 23.7815 70.6314 23.4688C70.6206 23.156 70.5024 22.8972 70.2874 22.7031C70.0724 22.4982 69.8037 22.3473 69.4705 22.2179C69.1372 22.0992 68.761 21.9914 68.3311 21.9051C67.9011 21.8189 67.4711 21.7218 67.0304 21.6248C66.579 21.5277 66.1383 21.3983 65.7191 21.2581C65.2998 21.1179 64.9236 20.9238 64.5904 20.6758C64.2572 20.4386 63.9885 20.1258 63.795 19.7484C63.5908 19.371 63.494 18.9073 63.494 18.3466C63.494 17.7427 63.6445 17.2466 63.9347 16.8368C64.2249 16.4271 64.6012 16.1036 65.0419 15.8555C65.4933 15.6075 65.9878 15.435 66.536 15.3271C67.0842 15.2301 67.6109 15.1762 68.1053 15.1762C68.675 15.1762 69.2232 15.2409 69.7392 15.3595C70.2551 15.4781 70.7281 15.6722 71.1473 15.9526C71.5665 16.2222 71.9105 16.578 72.19 17.0094C72.4694 17.4407 72.6414 17.9691 72.7167 18.5838H70.1799C70.0617 18.0015 69.8037 17.6025 69.3845 17.4084C68.9653 17.2035 68.4816 17.1064 67.9441 17.1064C67.7721 17.1064 67.5679 17.1172 67.3314 17.1496C67.0949 17.1819 66.8799 17.2358 66.665 17.3113C66.4607 17.3868 66.2888 17.5054 66.1383 17.6564C65.9985 17.8074 65.9233 18.0015 65.9233 18.2495C65.9233 18.5514 66.0308 18.7887 66.235 18.972C66.4392 19.1553 66.708 19.3063 67.0412 19.4357C67.3744 19.5543 67.7506 19.6622 68.1806 19.7484C68.6105 19.8347 69.0513 19.9317 69.5027 20.0288C69.9434 20.1258 70.3734 20.2552 70.8033 20.3954C71.2333 20.5356 71.6095 20.7297 71.9427 20.9777C72.276 21.2258 72.5447 21.5277 72.7489 21.8944C72.9531 22.261 73.0606 22.7247 73.0606 23.2639C73.0606 23.9217 72.9101 24.4716 72.6092 24.9353C72.3082 25.3882 71.9212 25.7657 71.4483 26.046C70.9753 26.3264 70.4379 26.5421 69.8574 26.6715C69.277 26.8009 68.6965 26.8656 68.1268 26.8656C67.4282 26.8656 66.7832 26.7901 66.192 26.6284C65.6008 26.4666 65.0849 26.2294 64.6549 25.9166C64.2249 25.5931 63.881 25.1941 63.6338 24.7197C63.3865 24.2452 63.2575 23.6737 63.236 23.0159H65.6868V22.9943ZM73.7056 15.4781H75.5436V12.1568H77.9729V15.4781H80.1657V17.3005H77.9729V23.21C77.9729 23.4688 77.9837 23.6844 78.0052 23.8785C78.0267 24.0619 78.0804 24.2236 78.1557 24.353C78.2309 24.4824 78.3491 24.5795 78.5104 24.6442C78.6716 24.7089 78.8758 24.7412 79.1553 24.7412C79.3273 24.7412 79.4993 24.7412 79.6713 24.7304C79.8432 24.7197 80.0152 24.6981 80.1872 24.655V26.5421C79.9185 26.5744 79.6498 26.596 79.4025 26.6284C79.1446 26.6607 78.8866 26.6715 78.6179 26.6715C77.9729 26.6715 77.457 26.6068 77.07 26.4882C76.683 26.3696 76.3713 26.1862 76.1563 25.949C75.9306 25.7118 75.7909 25.4206 75.7049 25.0647C75.6296 24.7089 75.5759 24.2991 75.5651 23.8462V17.3221H73.7271V15.4781H73.7056ZM81.8856 15.4781H84.1858V16.977H84.2288C84.5728 16.33 85.0458 15.8771 85.6585 15.5967C86.2711 15.3164 86.9268 15.1762 87.647 15.1762C88.5177 15.1762 89.2701 15.3271 89.9151 15.6399C90.56 15.9418 91.0975 16.3624 91.5274 16.9015C91.9574 17.4407 92.2691 18.0662 92.4841 18.7779C92.699 19.4896 92.8065 20.2552 92.8065 21.064C92.8065 21.8081 92.7098 22.5306 92.5163 23.2207C92.3228 23.9217 92.0326 24.5363 91.6457 25.0755C91.2587 25.6147 90.7642 26.0353 90.1623 26.3588C89.5603 26.6823 88.8617 26.844 88.0447 26.844C87.69 26.844 87.3353 26.8117 86.9806 26.747C86.6259 26.6823 86.2819 26.5744 85.9594 26.4343C85.637 26.2941 85.3252 26.1107 85.0565 25.8843C84.777 25.6578 84.5513 25.399 84.3578 25.1079H84.3148V30.6291H81.8856V15.4781ZM90.3773 21.0209C90.3773 20.5248 90.3128 20.0396 90.1838 19.5651C90.0548 19.0906 89.8613 18.6808 89.6033 18.3142C89.3454 17.9476 89.0229 17.6564 88.6467 17.4407C88.2597 17.2251 87.819 17.1064 87.3245 17.1064C86.3034 17.1064 85.5295 17.4623 85.0135 18.174C84.4976 18.8857 84.2396 19.8347 84.2396 21.0209C84.2396 21.5816 84.3041 22.0992 84.4438 22.5737C84.5836 23.0482 84.777 23.458 85.0565 23.8031C85.3252 24.1481 85.6477 24.4177 86.0239 24.6118C86.4001 24.8167 86.8409 24.9138 87.3353 24.9138C87.8943 24.9138 88.3565 24.7951 88.7434 24.5687C89.1304 24.3422 89.4421 24.0403 89.6893 23.6844C89.9366 23.3178 90.1193 22.908 90.2268 22.4443C90.3235 21.9806 90.3773 21.5061 90.3773 21.0209ZM94.6661 11.2617H97.0954V13.5694H94.6661V11.2617ZM94.6661 15.4781H97.0954V26.5421H94.6661V15.4781ZM99.2667 11.2617H101.696V26.5421H99.2667V11.2617ZM109.145 26.844C108.264 26.844 107.479 26.6931 106.791 26.4019C106.103 26.1107 105.523 25.701 105.039 25.1941C104.566 24.6765 104.2 24.0619 103.953 23.3501C103.706 22.6384 103.577 21.8512 103.577 20.9993C103.577 20.1582 103.706 19.3818 103.953 18.6701C104.2 17.9583 104.566 17.3437 105.039 16.8261C105.512 16.3084 106.103 15.9095 106.791 15.6183C107.479 15.3271 108.264 15.1762 109.145 15.1762C110.026 15.1762 110.811 15.3271 111.499 15.6183C112.187 15.9095 112.767 16.3192 113.251 16.8261C113.724 17.3437 114.09 17.9583 114.337 18.6701C114.584 19.3818 114.713 20.1582 114.713 20.9993C114.713 21.8512 114.584 22.6384 114.337 23.3501C114.09 24.0619 113.724 24.6765 113.251 25.1941C112.778 25.7118 112.187 26.1107 111.499 26.4019C110.811 26.6931 110.026 26.844 109.145 26.844ZM109.145 24.9138C109.682 24.9138 110.155 24.7951 110.553 24.5687C110.951 24.3422 111.273 24.0403 111.531 23.6737C111.789 23.307 111.972 22.8864 112.101 22.4228C112.219 21.9591 112.284 21.4846 112.284 20.9993C112.284 20.5248 112.219 20.0611 112.101 19.5867C111.983 19.1122 111.789 18.7024 111.531 18.3358C111.273 17.9691 110.951 17.678 110.553 17.4515C110.155 17.2251 109.682 17.1064 109.145 17.1064C108.608 17.1064 108.135 17.2251 107.737 17.4515C107.339 17.678 107.017 17.9799 106.759 18.3358C106.501 18.7024 106.318 19.1122 106.189 19.5867C106.071 20.0611 106.006 20.5248 106.006 20.9993C106.006 21.4846 106.071 21.9591 106.189 22.4228C106.307 22.8864 106.501 23.307 106.759 23.6737C107.017 24.0403 107.339 24.3422 107.737 24.5687C108.135 24.8059 108.608 24.9138 109.145 24.9138ZM115.422 15.4781H117.261V12.1568H119.69V15.4781H121.883V17.3005H119.69V23.21C119.69 23.4688 119.701 23.6844 119.722 23.8785C119.744 24.0619 119.797 24.2236 119.873 24.353C119.948 24.4824 120.066 24.5795 120.227 24.6442C120.388 24.7089 120.593 24.7412 120.872 24.7412C121.044 24.7412 121.216 24.7412 121.388 24.7304C121.56 24.7197 121.732 24.6981 121.904 24.655V26.5421C121.635 26.5744 121.367 26.596 121.119 26.6284C120.861 26.6607 120.603 26.6715 120.335 26.6715C119.69 26.6715 119.174 26.6068 118.787 26.4882C118.4 26.3696 118.088 26.1862 117.873 25.949C117.647 25.7118 117.508 25.4206 117.422 25.0647C117.347 24.7089 117.293 24.2991 117.282 23.8462V17.3221H115.444V15.4781H115.422Z" fill="#191919"/>
<path d="M29.2797 11.2615H18.1438L14.7041 0.628906L11.2536 11.2615L0.117676 11.2508L9.13609 17.8288L5.68566 28.4506L14.7041 21.8834L23.7117 28.4506L20.2721 17.8288L29.2797 11.2615Z" fill="#00B67A"/>
<path d="M21.0455 20.2329L20.2716 17.8281L14.7036 21.8828L21.0455 20.2329Z" fill="#005128"/>
</g>
<defs>
<clipPath id="clip0_14003_8585">
<rect width="121.765" height="30" fill="white" transform="translate(0.117676 0.628906)"/>
</clipPath>
</defs>
</svg>
